<?xml version="1.0" encoding="UTF-8" standalone="no"?>
<svg
   height="16px"
   viewBox="0 0 16 16"
   width="16px"
   version="1.1"
   id="svg1"
   sodipodi:docname="radio-checked-symbolic.svg"
   inkscape:version="1.4.3 (0d15f75042, 2025-12-25)"
   xmlns:inkscape="http://www.inkscape.org/namespaces/inkscape"
   xmlns:sodipodi="http://sodipodi.sourceforge.net/DTD/sodipodi-0.dtd"
   xmlns="http://www.w3.org/2000/svg"
   xmlns:svg="http://www.w3.org/2000/svg">
  <defs
     id="defs1" />
  <sodipodi:namedview
     id="namedview1"
     pagecolor="#ffffff"
     bordercolor="#999999"
     borderopacity="1"
     inkscape:showpageshadow="2"
     inkscape:pageopacity="0"
     inkscape:pagecheckerboard="0"
     inkscape:deskcolor="#d1d1d1"
     inkscape:zoom="72.5"
     inkscape:cx="8"
     inkscape:cy="8"
     inkscape:window-width="3440"
     inkscape:window-height="1371"
     inkscape:window-x="0"
     inkscape:window-y="0"
     inkscape:window-maximized="1"
     inkscape:current-layer="svg1" />
  <path
     d="M 8,5 C 6.347656,5 5,6.34375 5,8 5,9.65625 6.347656,11 8,11 9.65625,11 11,9.65625 11,8 11,6.34375 9.65625,5 8,5 Z"
     fill="#2e3436"
     id="path2"
     style="display:inline;fill:#2f3537;fill-opacity:1"
     sodipodi:nodetypes="sssss" />
  <path
     d="m 8.007812,0 c -4.40625,0 -7.9999995,3.59375 -7.9999995,8 0,4.40625 3.5937495,8 7.9999995,8 4.40625,0 8,-3.59375 8,-8 0,-4.40625 -3.59375,-8 -8,-8 z m 0,2 c 3.320313,0 6,2.679688 6,6 0,3.320312 -2.679687,6 -6,6 -3.320312,0 -6,-2.679688 -6,-6 0,-3.320312 2.679688,-6 6,-6 z"
     fill="#2e3436"
     id="path1"
     style="display:inline;fill:#212121;fill-opacity:0.34999999"
     sodipodi:nodetypes="ssssssssss" />
</svg>
